<?xml version="1.0" encoding="UTF-8"?>
<svg id="_图层_1" data-name="图层 1" xmlns="http://www.w3.org/2000/svg" viewBox="0 0 66 66.58">
  <defs>
    <style>
      .cls-1 {
        fill: #757575;
      }
    </style>
  </defs>
  <path class="cls-1" d="M56.32,63.58H10.94c-1.41,0-2.56-1.14-2.56-2.56V6.14c0-1.41,1.14-2.56,2.56-2.56H56.32c1.41,0,2.56,1.14,2.56,2.56V61.03c0,1.41-1.14,2.56-2.56,2.56Zm-42.82-5.11H53.76V8.69H13.5V58.47Z"/>
  <path class="cls-1" d="M41.19,50.21H20.74c-1.45,0-2.62-1.17-2.62-2.62s1.17-2.62,2.62-2.62h20.45c1.45,0,2.62,1.17,2.62,2.62s-1.17,2.62-2.62,2.62Z"/>
  <path class="cls-1" d="M46.06,22.09H20.74c-1.45,0-2.62-1.17-2.62-2.62s1.17-2.62,2.62-2.62h25.32c1.45,0,2.62,1.17,2.62,2.62s-1.17,2.62-2.62,2.62Z"/>
  <path class="cls-1" d="M33.16,36.15h-12.42c-1.45,0-2.62-1.17-2.62-2.62s1.17-2.62,2.62-2.62h12.42c1.45,0,2.62,1.17,2.62,2.62s-1.17,2.62-2.62,2.62Z"/>
</svg>