<?xml version="1.0" encoding="UTF-8"?>
<svg id="_图层_1" data-name="图层 1" xmlns="http://www.w3.org/2000/svg" viewBox="0 0 66 66.58">
  <defs>
    <style>
      .cls-1 {
        fill: #fff;
      }
    </style>
  </defs>
  <path class="cls-1" d="M60.15,63.58h-21.58v-2.01c.01-.11,.09-11.32,.01-15.23-.11-5.56-2.93-6.28-5.38-6.28s-5.91,.63-5.91,6.11c0,4.42-.16,15.33-.16,15.44l-.03,1.97H5.48v-2.01c.01-.24,.17-23.18,.18-26.85-.46-.13-1.35-.17-1.71-.18-.96-.04-2.15-.08-2.74-1.26h0s0,0,0,0c-.67-1.33,.13-2.16,1.57-3.67,.81-.84,1.97-2.03,3.38-3.44,2.47-2.48,5.92-5.9,10.27-10.17C23.9,8.64,31.41,1.34,31.41,1.34l1.38-1.34,1.39,1.32c.08,.07,7.69,7.29,15.18,14.51,15.95,15.38,15.92,15.53,15.59,16.98-.42,1.88-2.38,1.84-3.43,1.82-.34,0-.97-.02-1.36,.04v28.91Zm-17.55-4h13.55v-25.17c0-1.31,.56-2.14,1.04-2.6,.51-.5,1.13-.79,1.76-.96-5.11-5.2-17.36-16.97-26.13-25.3C24.16,13.98,12.1,25.81,7.02,30.98c1.37,.46,2.64,1.41,2.64,3.43s-.11,19.22-.15,25.17h13.66c.04-3.36,.13-10.16,.13-13.41,0-6.33,3.7-10.11,9.91-10.11,5.83,0,9.25,3.72,9.38,10.2,.06,2.98,.03,9.88,.01,13.32Z"/>
</svg>