<?xml version="1.0" encoding="UTF-8"?>
<svg id="_图层_1" data-name="图层 1" xmlns="http://www.w3.org/2000/svg" viewBox="0 0 66 66.58">
  <defs>
    <style>
      .cls-1 {
        fill: #757575;
      }
    </style>
  </defs>
  <path class="cls-1" d="M18.24,64.45c-1.69,0-3.36-.53-4.79-1.57-2.53-1.84-3.78-4.9-3.25-7.99l1.9-11.07c.12-.7-.11-1.42-.62-1.92l-8.04-7.84c-2.24-2.19-3.03-5.39-2.07-8.37,.97-2.98,3.49-5.11,6.59-5.56l11.12-1.62c.71-.1,1.32-.55,1.63-1.19l4.97-10.07c1.39-2.81,4.19-4.55,7.32-4.55,3.13,0,5.94,1.74,7.32,4.55l4.97,10.07c.32,.64,.93,1.08,1.63,1.19l11.12,1.62c3.1,.45,5.62,2.58,6.59,5.56,.97,2.98,.18,6.19-2.07,8.37l-8.04,7.84c-.51,.5-.74,1.21-.62,1.92l1.9,11.07c.53,3.09-.72,6.15-3.25,7.99-2.53,1.84-5.83,2.08-8.6,.62l-9.94-5.23c-.63-.33-1.39-.33-2.02,0l-9.94,5.23c-1.21,.63-2.51,.95-3.81,.95ZM33,8.71c-.41,0-1.41,.12-1.94,1.21l-4.97,10.07c-1.19,2.41-3.49,4.08-6.15,4.47l-11.12,1.62c-1.2,.17-1.62,1.09-1.75,1.48-.12,.39-.32,1.37,.55,2.22l8.05,7.84c1.93,1.88,2.8,4.58,2.35,7.23l-1.9,11.07c-.21,1.2,.53,1.88,.86,2.12,.33,.24,1.21,.73,2.28,.17l9.94-5.23c2.38-1.25,5.22-1.25,7.6,0l9.94,5.23c1.08,.57,1.96,.07,2.28-.17,.33-.24,1.07-.92,.86-2.12l-1.9-11.07c-.45-2.65,.42-5.35,2.35-7.23l8.05-7.84c.87-.85,.67-1.84,.55-2.22s-.55-1.3-1.75-1.48l-11.12-1.62c-2.66-.39-4.96-2.06-6.15-4.47l-4.97-10.07c-.54-1.09-1.54-1.21-1.94-1.21Z"/>
</svg>