<?xml version="1.0" encoding="UTF-8"?>
<svg id="_图层_1" data-name="图层 1" xmlns="http://www.w3.org/2000/svg" viewBox="0 0 65.47 51.6">
  <defs>
    <style>
      .cls-1 {
        fill: #383838;
      }
    </style>
  </defs>
  <path class="cls-1" d="M49.52,51.6H14.91c-1.55,0-2.82-1.27-2.82-2.83V19.13H2.82c-1.55,0-2.82-1.27-2.82-2.83V2.83C0,1.27,1.26,0,2.82,0H22.47c1.55,0,2.82,1.27,2.82,2.84,0,3.31,3.34,6,7.45,6s7.45-2.69,7.45-5.99c0-1.57,1.26-2.84,2.82-2.84h19.65c1.55,0,2.82,1.27,2.82,2.83v13.47c0,1.56-1.26,2.83-2.82,2.83h-10.32v29.64c0,1.56-1.26,2.83-2.82,2.83Zm-32.43-5h30.24V16.96c0-1.56,1.26-2.83,2.82-2.83h10.32V5h-15.53c-1.14,5.03-6.18,8.83-12.21,8.83s-11.07-3.8-12.21-8.83H5V14.13H14.28c1.55,0,2.82,1.27,2.82,2.83v29.64Z"/>
</svg>